# xmcd
#
# Track frame offsets:
#	150
#	17770
#	38876
#	55337
#	74503
#	95005
#	119727
#	144643
#	170391
#	185027
#	211411
#	230585
#	250741
#	271830
#	299747
#	316626
#	339248
#
# Disc length: 4767 seconds
#
# Revision: 0
# Processed by: cddbd v1.5.2PL0 Copyright (c) Steve Scherf et al.
# Submitted via: EasyCDDAExtractor 8.2.3.1
#
DISCID=08129d11
DTITLE=SANTANA - Super Hits Of   CD-1
DYEAR=2005
DGENRE=Blues
TTITLE0=Evil Ways
TTITLE1=Treat
TTITLE2=Black Magic Woman (Gypsy Queen)
TTITLE3=Oye Come Va
TTITLE4=Samba Pa Ti
TTITLE5=No One To Depend On
TTITLE6=Taboo
TTITLE7=Everybody's Everything
TTITLE8=Everything's Coming Our Way
TTITLE9=Song Of the Wind
TTITLE10=Life Is a New
TTITLE11=Practice What You Preach
TTITLE12=Mirage
TTITLE13=Gitano
TTITLE14=Europa (Earth's Cry Heaven's Smile)
TTITLE15=Flor D'Luna
TTITLE16=She's Hot There
EXTD=
EXTT0=
EXTT1=
EXTT2=
EXTT3=
EXTT4=
EXTT5=
EXTT6=
EXTT7=
EXTT8=
EXTT9=
EXTT10=
EXTT11=
EXTT12=
EXTT13=
EXTT14=
EXTT15=
EXTT16=
PLAYORDER=
